<?xml version="1.0" encoding="UTF-8" standalone="no"?>
<!DOCTYPE svg PUBLIC "-//W3C//DTD SVG 1.1//EN"
 "http://www.w3.org/Graphics/SVG/1.1/DTD/svg11.dtd">
<!-- Generated by graphviz version 9.0.0 (20230911.1827)
 -->
<!-- Title: I Pages: 1 -->
<svg width="274pt" height="327pt"
 viewBox="0.00 0.00 273.61 327.11" xmlns="http://www.w3.org/2000/svg" xmlns:xlink="http://www.w3.org/1999/xlink">
<g id="graph0" class="graph" transform="scale(1 1) rotate(0) translate(4 323.11)">
<title>I</title>
<polygon fill="white" stroke="none" points="-4,4 -4,-323.11 269.61,-323.11 269.61,4 -4,4"/>
<!-- SP -->
<g id="node1" class="node">
<title>SP</title>
<ellipse fill="lightgrey" stroke="black" cx="71.58" cy="-301.11" rx="44.58" ry="18"/>
<text text-anchor="middle" x="71.58" y="-295.69" font-family="Times New Roman,serif" font-size="14.00">Set Point</text>
</g>
<!-- S1 -->
<g id="node3" class="node">
<title>S1</title>
<ellipse fill="lightgrey" stroke="black" cx="71.58" cy="-213.36" rx="41.58" ry="18"/>
<text text-anchor="middle" x="71.58" y="-207.94" font-family="Times New Roman,serif" font-size="14.00">SP &#45; PV</text>
</g>
<!-- SP&#45;&gt;S1 -->
<g id="edge1" class="edge">
<title>SP&#45;&gt;S1</title>
<path fill="none" stroke="black" d="M71.58,-282.76C71.58,-271.37 71.58,-256.2 71.58,-243.04"/>
<polygon fill="black" stroke="black" points="75.09,-243.2 71.58,-233.2 68.09,-243.2 75.09,-243.2"/>
<text text-anchor="middle" x="80.21" y="-251.81" font-family="Times New Roman,serif" font-size="14.00">r(t)</text>
</g>
<!-- PR -->
<g id="node2" class="node">
<title>PR</title>
<ellipse fill="lightgrey" stroke="black" cx="40.58" cy="-18" rx="40.58" ry="18"/>
<text text-anchor="middle" x="40.58" y="-12.57" font-family="Times New Roman,serif" font-size="14.00">Process</text>
</g>
<!-- PR&#45;&gt;S1 -->
<g id="edge2" class="edge">
<title>PR&#45;&gt;S1</title>
<path fill="none" stroke="black" d="M36.28,-36.26C30.94,-60.61 23.65,-106.27 33.33,-143.61 37.25,-158.69 45.27,-173.98 52.96,-186.3"/>
<polygon fill="black" stroke="black" points="50,-188.17 58.41,-194.62 55.85,-184.33 50,-188.17"/>
<text text-anchor="middle" x="60.21" y="-110.26" font-family="Times New Roman,serif" font-size="14.00">PV = y(t)</text>
</g>
<!-- I -->
<g id="node4" class="node">
<title>I</title>
<ellipse fill="lightblue" stroke="lightblue" cx="180.58" cy="-115.68" rx="85.03" ry="27.93"/>
<text text-anchor="middle" x="180.58" y="-118.13" font-family="Times New Roman,serif" font-size="14.00">Integral Controller:</text>
<text text-anchor="middle" x="180.58" y="-102.38" font-family="Times New Roman,serif" font-size="14.00">Kᵢ ∫e(t)</text>
</g>
<!-- S1&#45;&gt;I -->
<g id="edge3" class="edge">
<title>S1&#45;&gt;I</title>
<path fill="none" stroke="black" d="M89.1,-196.99C103.71,-184.16 125.04,-165.44 143.43,-149.3"/>
<polygon fill="black" stroke="black" points="145.29,-152.32 150.5,-143.09 140.67,-147.06 145.29,-152.32"/>
<text text-anchor="middle" x="137.96" y="-164.06" font-family="Times New Roman,serif" font-size="14.00">e(t)</text>
</g>
<!-- I&#45;&gt;PR -->
<g id="edge4" class="edge">
<title>I&#45;&gt;PR</title>
<path fill="none" stroke="black" d="M144.53,-90.04C121.91,-74.58 93.04,-54.85 71.48,-40.11"/>
<polygon fill="black" stroke="black" points="73.61,-37.33 63.38,-34.58 69.66,-43.11 73.61,-37.33"/>
<text text-anchor="middle" x="124.33" y="-56.45" font-family="Times New Roman,serif" font-size="14.00">u(t)</text>
</g>
</g>
</svg>
