<?xml version="1.0" encoding="UTF-8" standalone="no"?>
<!DOCTYPE svg PUBLIC "-//W3C//DTD SVG 1.1//EN"
 "http://www.w3.org/Graphics/SVG/1.1/DTD/svg11.dtd">
<!-- Generated by graphviz version 9.0.0 (20230911.1827)
 -->
<!-- Title: ID Pages: 1 -->
<svg width="439pt" height="415pt"
 viewBox="0.00 0.00 438.69 414.86" xmlns="http://www.w3.org/2000/svg" xmlns:xlink="http://www.w3.org/1999/xlink">
<g id="graph0" class="graph" transform="scale(1 1) rotate(0) translate(4 410.86)">
<title>ID</title>
<polygon fill="white" stroke="none" points="-4,4 -4,-410.86 434.69,-410.86 434.69,4 -4,4"/>
<!-- SP -->
<g id="node1" class="node">
<title>SP</title>
<ellipse fill="none" stroke="black" cx="137.58" cy="-388.86" rx="44.58" ry="18"/>
<text text-anchor="middle" x="137.58" y="-383.44" font-family="Times New Roman,serif" font-size="14.00">Set Point</text>
</g>
<!-- S1 -->
<g id="node3" class="node">
<title>S1</title>
<ellipse fill="none" stroke="black" cx="137.58" cy="-301.11" rx="41.58" ry="18"/>
<text text-anchor="middle" x="137.58" y="-295.69" font-family="Times New Roman,serif" font-size="14.00">SP &#45; PV</text>
</g>
<!-- SP&#45;&gt;S1 -->
<g id="edge1" class="edge">
<title>SP&#45;&gt;S1</title>
<path fill="none" stroke="black" d="M137.58,-370.51C137.58,-359.12 137.58,-343.95 137.58,-330.79"/>
<polygon fill="black" stroke="black" points="141.09,-330.95 137.58,-320.95 134.09,-330.95 141.09,-330.95"/>
<text text-anchor="middle" x="146.21" y="-339.56" font-family="Times New Roman,serif" font-size="14.00">r(t)</text>
</g>
<!-- PR -->
<g id="node2" class="node">
<title>PR</title>
<ellipse fill="none" stroke="black" cx="40.58" cy="-18" rx="40.58" ry="18"/>
<text text-anchor="middle" x="40.58" y="-12.57" font-family="Times New Roman,serif" font-size="14.00">Process</text>
</g>
<!-- PR&#45;&gt;S1 -->
<g id="edge2" class="edge">
<title>PR&#45;&gt;S1</title>
<path fill="none" stroke="black" d="M35.96,-36.2C26.78,-74.01 9.92,-166.17 43.58,-231.36 55.33,-254.11 78.45,-271.17 98.82,-282.61"/>
<polygon fill="black" stroke="black" points="97.03,-285.62 107.51,-287.21 100.31,-279.44 97.03,-285.62"/>
<text text-anchor="middle" x="51.21" y="-144.2" font-family="Times New Roman,serif" font-size="14.00">PV = y(t)</text>
</g>
<!-- I -->
<g id="node4" class="node">
<title>I</title>
<ellipse fill="none" stroke="black" cx="137.58" cy="-203.43" rx="85.03" ry="27.93"/>
<text text-anchor="middle" x="137.58" y="-205.88" font-family="Times New Roman,serif" font-size="14.00">Integral Controller:</text>
<text text-anchor="middle" x="137.58" y="-190.13" font-family="Times New Roman,serif" font-size="14.00">Kᵢ ∫e(t)</text>
</g>
<!-- S1&#45;&gt;I -->
<g id="edge3" class="edge">
<title>S1&#45;&gt;I</title>
<path fill="none" stroke="black" d="M137.58,-283.01C137.58,-271.84 137.58,-256.79 137.58,-242.85"/>
<polygon fill="black" stroke="black" points="141.09,-243.03 137.58,-233.03 134.09,-243.03 141.09,-243.03"/>
<text text-anchor="middle" x="146.96" y="-251.81" font-family="Times New Roman,serif" font-size="14.00">e(t)</text>
</g>
<!-- D -->
<g id="node5" class="node">
<title>D</title>
<ellipse fill="none" stroke="black" cx="335.58" cy="-203.43" rx="95.11" ry="27.93"/>
<text text-anchor="middle" x="335.58" y="-205.88" font-family="Times New Roman,serif" font-size="14.00">Derivative Controller:</text>
<text text-anchor="middle" x="335.58" y="-190.13" font-family="Times New Roman,serif" font-size="14.00">Kd = de(t)/dt</text>
</g>
<!-- S1&#45;&gt;D -->
<g id="edge4" class="edge">
<title>S1&#45;&gt;D</title>
<path fill="none" stroke="black" d="M164.7,-287.01C193.45,-273.11 239.76,-250.74 276.92,-232.78"/>
<polygon fill="black" stroke="black" points="278.29,-236 285.77,-228.5 275.24,-229.7 278.29,-236"/>
<text text-anchor="middle" x="251.96" y="-251.81" font-family="Times New Roman,serif" font-size="14.00">e(t)</text>
</g>
<!-- S2 -->
<g id="node6" class="node">
<title>S2</title>
<ellipse fill="none" stroke="black" cx="137.58" cy="-105.75" rx="27" ry="18"/>
<text text-anchor="middle" x="137.58" y="-100.33" font-family="Times New Roman,serif" font-size="14.00">Σ</text>
</g>
<!-- I&#45;&gt;S2 -->
<g id="edge5" class="edge">
<title>I&#45;&gt;S2</title>
<path fill="none" stroke="black" d="M137.58,-175.01C137.58,-162.63 137.58,-147.99 137.58,-135.45"/>
<polygon fill="black" stroke="black" points="141.09,-135.73 137.58,-125.73 134.09,-135.73 141.09,-135.73"/>
</g>
<!-- D&#45;&gt;S2 -->
<g id="edge6" class="edge">
<title>D&#45;&gt;S2</title>
<path fill="none" stroke="black" d="M287.15,-179.02C250.43,-161.28 201.02,-137.4 169.23,-122.04"/>
<polygon fill="black" stroke="black" points="171.06,-119.04 160.53,-117.84 168.01,-125.34 171.06,-119.04"/>
</g>
<!-- S2&#45;&gt;PR -->
<g id="edge7" class="edge">
<title>S2&#45;&gt;PR</title>
<path fill="none" stroke="black" d="M122,-90.97C107,-77.71 84.04,-57.41 66.32,-41.75"/>
<polygon fill="black" stroke="black" points="69.04,-39.49 59.23,-35.49 64.41,-44.73 69.04,-39.49"/>
<text text-anchor="middle" x="108.33" y="-56.45" font-family="Times New Roman,serif" font-size="14.00">u(t)</text>
</g>
</g>
</svg>
