<?xml version="1.0" encoding="UTF-8" standalone="no"?>
<!DOCTYPE svg PUBLIC "-//W3C//DTD SVG 1.1//EN"
 "http://www.w3.org/Graphics/SVG/1.1/DTD/svg11.dtd">
<!-- Generated by graphviz version 9.0.0 (20230911.1827)
 -->
<!-- Title: P Pages: 1 -->
<svg width="324pt" height="327pt"
 viewBox="0.00 0.00 323.54 327.11" xmlns="http://www.w3.org/2000/svg" xmlns:xlink="http://www.w3.org/1999/xlink">
<g id="graph0" class="graph" transform="scale(1 1) rotate(0) translate(4 323.11)">
<title>P</title>
<polygon fill="white" stroke="none" points="-4,4 -4,-323.11 319.54,-323.11 319.54,4 -4,4"/>
<!-- SP -->
<g id="node1" class="node">
<title>SP</title>
<ellipse fill="lightgrey" stroke="black" cx="77.58" cy="-301.11" rx="44.58" ry="18"/>
<text text-anchor="middle" x="77.58" y="-295.69" font-family="Times New Roman,serif" font-size="14.00">Set Point</text>
</g>
<!-- S1 -->
<g id="node3" class="node">
<title>S1</title>
<ellipse fill="lightgrey" stroke="black" cx="77.58" cy="-213.36" rx="41.58" ry="18"/>
<text text-anchor="middle" x="77.58" y="-207.94" font-family="Times New Roman,serif" font-size="14.00">SP &#45; PV</text>
</g>
<!-- SP&#45;&gt;S1 -->
<g id="edge1" class="edge">
<title>SP&#45;&gt;S1</title>
<path fill="none" stroke="black" d="M77.58,-282.76C77.58,-271.37 77.58,-256.2 77.58,-243.04"/>
<polygon fill="black" stroke="black" points="81.09,-243.2 77.58,-233.2 74.09,-243.2 81.09,-243.2"/>
<text text-anchor="middle" x="86.21" y="-251.81" font-family="Times New Roman,serif" font-size="14.00">r(t)</text>
</g>
<!-- PR -->
<g id="node2" class="node">
<title>PR</title>
<ellipse fill="lightgrey" stroke="black" cx="40.58" cy="-18" rx="40.58" ry="18"/>
<text text-anchor="middle" x="40.58" y="-12.57" font-family="Times New Roman,serif" font-size="14.00">Process</text>
</g>
<!-- PR&#45;&gt;S1 -->
<g id="edge2" class="edge">
<title>PR&#45;&gt;S1</title>
<path fill="none" stroke="black" d="M35.95,-36.35C30.21,-60.82 22.45,-106.6 33.33,-143.61 37.95,-159.3 47.37,-174.79 56.34,-187.09"/>
<polygon fill="black" stroke="black" points="53.55,-189.2 62.41,-195 59.1,-184.94 53.55,-189.2"/>
<text text-anchor="middle" x="60.21" y="-110.26" font-family="Times New Roman,serif" font-size="14.00">PV = y(t)</text>
</g>
<!-- P -->
<g id="node4" class="node">
<title>P</title>
<ellipse fill="green" stroke="green" cx="205.58" cy="-115.68" rx="109.96" ry="27.93"/>
<text text-anchor="middle" x="205.58" y="-118.13" font-family="Times New Roman,serif" font-size="14.00">Proportionate Controller:</text>
<text text-anchor="middle" x="205.58" y="-102.38" font-family="Times New Roman,serif" font-size="14.00">Kₚ e(t)</text>
</g>
<!-- S1&#45;&gt;P -->
<g id="edge3" class="edge">
<title>S1&#45;&gt;P</title>
<path fill="none" stroke="black" d="M97.87,-197.2C115.01,-184.38 140.18,-165.57 161.88,-149.35"/>
<polygon fill="black" stroke="black" points="163.81,-152.28 169.72,-143.49 159.61,-146.67 163.81,-152.28"/>
<text text-anchor="middle" x="153.96" y="-164.06" font-family="Times New Roman,serif" font-size="14.00">e(t)</text>
</g>
<!-- P&#45;&gt;PR -->
<g id="edge4" class="edge">
<title>P&#45;&gt;PR</title>
<path fill="none" stroke="black" d="M162.23,-89.54C134.71,-73.58 99.61,-53.23 74.2,-38.49"/>
<polygon fill="black" stroke="black" points="76.01,-35.49 65.6,-33.51 72.5,-41.55 76.01,-35.49"/>
<text text-anchor="middle" x="137.33" y="-56.45" font-family="Times New Roman,serif" font-size="14.00">u(t)</text>
</g>
</g>
</svg>
