<?xml version="1.0" encoding="UTF-8" standalone="no"?>
<!DOCTYPE svg PUBLIC "-//W3C//DTD SVG 1.1//EN"
 "http://www.w3.org/Graphics/SVG/1.1/DTD/svg11.dtd">
<!-- Generated by graphviz version 9.0.0 (20230911.1827)
 -->
<!-- Title: PD Pages: 1 -->
<svg width="489pt" height="415pt"
 viewBox="0.00 0.00 488.69 414.86" xmlns="http://www.w3.org/2000/svg" xmlns:xlink="http://www.w3.org/1999/xlink">
<g id="graph0" class="graph" transform="scale(1 1) rotate(0) translate(4 410.86)">
<title>PD</title>
<polygon fill="white" stroke="none" points="-4,4 -4,-410.86 484.69,-410.86 484.69,4 -4,4"/>
<!-- SP -->
<g id="node1" class="node">
<title>SP</title>
<ellipse fill="lightgrey" stroke="black" cx="162.58" cy="-388.86" rx="44.58" ry="18"/>
<text text-anchor="middle" x="162.58" y="-383.44" font-family="Times New Roman,serif" font-size="14.00">Set Point</text>
</g>
<!-- S1 -->
<g id="node3" class="node">
<title>S1</title>
<ellipse fill="lightgrey" stroke="black" cx="162.58" cy="-301.11" rx="41.58" ry="18"/>
<text text-anchor="middle" x="162.58" y="-295.69" font-family="Times New Roman,serif" font-size="14.00">SP &#45; PV</text>
</g>
<!-- SP&#45;&gt;S1 -->
<g id="edge1" class="edge">
<title>SP&#45;&gt;S1</title>
<path fill="none" stroke="black" d="M162.58,-370.51C162.58,-359.12 162.58,-343.95 162.58,-330.79"/>
<polygon fill="black" stroke="black" points="166.09,-330.95 162.58,-320.95 159.09,-330.95 166.09,-330.95"/>
<text text-anchor="middle" x="171.21" y="-339.56" font-family="Times New Roman,serif" font-size="14.00">r(t)</text>
</g>
<!-- PR -->
<g id="node2" class="node">
<title>PR</title>
<ellipse fill="lightgrey" stroke="black" cx="40.58" cy="-18" rx="40.58" ry="18"/>
<text text-anchor="middle" x="40.58" y="-12.57" font-family="Times New Roman,serif" font-size="14.00">Process</text>
</g>
<!-- PR&#45;&gt;S1 -->
<g id="edge2" class="edge">
<title>PR&#45;&gt;S1</title>
<path fill="none" stroke="black" d="M35.52,-36.19C25.33,-74.39 6.37,-167.91 43.58,-231.36 59.61,-258.67 91,-276.15 117.52,-286.64"/>
<polygon fill="black" stroke="black" points="116.14,-289.86 126.73,-290.06 118.57,-283.3 116.14,-289.86"/>
<text text-anchor="middle" x="49.21" y="-144.2" font-family="Times New Roman,serif" font-size="14.00">PV = y(t)</text>
</g>
<!-- P -->
<g id="node4" class="node">
<title>P</title>
<ellipse fill="lightgreen" stroke="lightgreen" cx="162.58" cy="-203.43" rx="109.96" ry="27.93"/>
<text text-anchor="middle" x="162.58" y="-205.88" font-family="Times New Roman,serif" font-size="14.00">Proportionate Controller:</text>
<text text-anchor="middle" x="162.58" y="-190.13" font-family="Times New Roman,serif" font-size="14.00">Kₚ e(t)</text>
</g>
<!-- S1&#45;&gt;P -->
<g id="edge3" class="edge">
<title>S1&#45;&gt;P</title>
<path fill="none" stroke="black" d="M162.58,-283.01C162.58,-271.84 162.58,-256.79 162.58,-242.85"/>
<polygon fill="black" stroke="black" points="166.09,-243.03 162.58,-233.03 159.09,-243.03 166.09,-243.03"/>
<text text-anchor="middle" x="171.96" y="-251.81" font-family="Times New Roman,serif" font-size="14.00">e(t)</text>
</g>
<!-- D -->
<g id="node5" class="node">
<title>D</title>
<ellipse fill="pink" stroke="pink" cx="385.58" cy="-203.43" rx="95.11" ry="27.93"/>
<text text-anchor="middle" x="385.58" y="-205.88" font-family="Times New Roman,serif" font-size="14.00">Derivative Controller:</text>
<text text-anchor="middle" x="385.58" y="-190.13" font-family="Times New Roman,serif" font-size="14.00">K_d de(t)/dt</text>
</g>
<!-- S1&#45;&gt;D -->
<g id="edge4" class="edge">
<title>S1&#45;&gt;D</title>
<path fill="none" stroke="black" d="M191.28,-287.8C224.32,-273.62 279.57,-249.92 322.73,-231.4"/>
<polygon fill="black" stroke="black" points="323.94,-234.69 331.75,-227.53 321.18,-228.26 323.94,-234.69"/>
<text text-anchor="middle" x="290.96" y="-251.81" font-family="Times New Roman,serif" font-size="14.00">e(t)</text>
</g>
<!-- S2 -->
<g id="node6" class="node">
<title>S2</title>
<ellipse fill="lightgrey" stroke="black" cx="162.58" cy="-105.75" rx="27" ry="18"/>
<text text-anchor="middle" x="162.58" y="-100.33" font-family="Times New Roman,serif" font-size="14.00">Σ</text>
</g>
<!-- P&#45;&gt;S2 -->
<g id="edge5" class="edge">
<title>P&#45;&gt;S2</title>
<path fill="none" stroke="black" d="M162.58,-175.01C162.58,-162.63 162.58,-147.99 162.58,-135.45"/>
<polygon fill="black" stroke="black" points="166.09,-135.73 162.58,-125.73 159.09,-135.73 166.09,-135.73"/>
</g>
<!-- D&#45;&gt;S2 -->
<g id="edge6" class="edge">
<title>D&#45;&gt;S2</title>
<path fill="none" stroke="black" d="M332.74,-179.76C290.13,-161.48 231.56,-136.34 195.43,-120.84"/>
<polygon fill="black" stroke="black" points="196.94,-117.68 186.37,-116.96 194.18,-124.12 196.94,-117.68"/>
</g>
<!-- S2&#45;&gt;PR -->
<g id="edge7" class="edge">
<title>S2&#45;&gt;PR</title>
<path fill="none" stroke="black" d="M144.58,-92.1C125.21,-78.48 94.07,-56.59 70.91,-40.31"/>
<polygon fill="black" stroke="black" points="72.96,-37.48 62.77,-34.59 68.93,-43.2 72.96,-37.48"/>
<text text-anchor="middle" x="122.33" y="-56.45" font-family="Times New Roman,serif" font-size="14.00">u(t)</text>
</g>
</g>
</svg>
