<?xml version="1.0" encoding="UTF-8" standalone="no"?>
<!DOCTYPE svg PUBLIC "-//W3C//DTD SVG 1.1//EN"
 "http://www.w3.org/Graphics/SVG/1.1/DTD/svg11.dtd">
<!-- Generated by graphviz version 9.0.0 (20230911.1827)
 -->
<!-- Title: PI Pages: 1 -->
<svg width="677pt" height="415pt"
 viewBox="0.00 0.00 676.69 414.86" xmlns="http://www.w3.org/2000/svg" xmlns:xlink="http://www.w3.org/1999/xlink">
<g id="graph0" class="graph" transform="scale(1 1) rotate(0) translate(4 410.86)">
<title>PI</title>
<polygon fill="white" stroke="none" points="-4,4 -4,-410.86 672.69,-410.86 672.69,4 -4,4"/>
<!-- SP -->
<g id="node1" class="node">
<title>SP</title>
<ellipse fill="none" stroke="black" cx="162.58" cy="-388.86" rx="44.58" ry="18"/>
<text text-anchor="middle" x="162.58" y="-383.44" font-family="Times New Roman,serif" font-size="14.00">Set Point</text>
</g>
<!-- S1 -->
<g id="node3" class="node">
<title>S1</title>
<ellipse fill="none" stroke="black" cx="162.58" cy="-301.11" rx="41.58" ry="18"/>
<text text-anchor="middle" x="162.58" y="-295.69" font-family="Times New Roman,serif" font-size="14.00">SP &#45; PV</text>
</g>
<!-- SP&#45;&gt;S1 -->
<g id="edge1" class="edge">
<title>SP&#45;&gt;S1</title>
<path fill="none" stroke="black" d="M162.58,-370.51C162.58,-359.12 162.58,-343.95 162.58,-330.79"/>
<polygon fill="black" stroke="black" points="166.09,-330.95 162.58,-320.95 159.09,-330.95 166.09,-330.95"/>
<text text-anchor="middle" x="171.21" y="-339.56" font-family="Times New Roman,serif" font-size="14.00">r(t)</text>
</g>
<!-- PR -->
<g id="node2" class="node">
<title>PR</title>
<ellipse fill="none" stroke="black" cx="40.58" cy="-18" rx="40.58" ry="18"/>
<text text-anchor="middle" x="40.58" y="-12.57" font-family="Times New Roman,serif" font-size="14.00">Process</text>
</g>
<!-- PR&#45;&gt;S1 -->
<g id="edge2" class="edge">
<title>PR&#45;&gt;S1</title>
<path fill="none" stroke="black" d="M35.52,-36.19C25.33,-74.39 6.37,-167.91 43.58,-231.36 59.61,-258.67 91,-276.15 117.52,-286.64"/>
<polygon fill="black" stroke="black" points="116.14,-289.86 126.73,-290.06 118.57,-283.3 116.14,-289.86"/>
<text text-anchor="middle" x="49.21" y="-144.2" font-family="Times New Roman,serif" font-size="14.00">PV = y(t)</text>
</g>
<!-- P -->
<g id="node4" class="node">
<title>P</title>
<ellipse fill="none" stroke="black" cx="162.58" cy="-203.43" rx="109.96" ry="27.93"/>
<text text-anchor="middle" x="162.58" y="-205.88" font-family="Times New Roman,serif" font-size="14.00">Proportionate Controller:</text>
<text text-anchor="middle" x="162.58" y="-190.13" font-family="Times New Roman,serif" font-size="14.00">Kₚ e(t)</text>
</g>
<!-- S1&#45;&gt;P -->
<g id="edge3" class="edge">
<title>S1&#45;&gt;P</title>
<path fill="none" stroke="black" d="M162.58,-283.01C162.58,-271.84 162.58,-256.79 162.58,-242.85"/>
<polygon fill="black" stroke="black" points="166.09,-243.03 162.58,-233.03 159.09,-243.03 166.09,-243.03"/>
<text text-anchor="middle" x="171.96" y="-251.81" font-family="Times New Roman,serif" font-size="14.00">e(t)</text>
</g>
<!-- I -->
<g id="node5" class="node">
<title>I</title>
<ellipse fill="none" stroke="black" cx="375.58" cy="-203.43" rx="85.03" ry="27.93"/>
<text text-anchor="middle" x="375.58" y="-205.88" font-family="Times New Roman,serif" font-size="14.00">Integral Controller:</text>
<text text-anchor="middle" x="375.58" y="-190.13" font-family="Times New Roman,serif" font-size="14.00">Kᵢ ∫e(t)</text>
</g>
<!-- S1&#45;&gt;I -->
<g id="edge4" class="edge">
<title>S1&#45;&gt;I</title>
<path fill="none" stroke="black" d="M190.43,-287.6C222.17,-273.34 274.98,-249.62 316.09,-231.15"/>
<polygon fill="black" stroke="black" points="317.47,-234.37 325.16,-227.08 314.61,-227.99 317.47,-234.37"/>
<text text-anchor="middle" x="284.96" y="-251.81" font-family="Times New Roman,serif" font-size="14.00">e(t)</text>
</g>
<!-- S2 -->
<g id="node7" class="node">
<title>S2</title>
<ellipse fill="none" stroke="black" cx="251.58" cy="-105.75" rx="27" ry="18"/>
<text text-anchor="middle" x="251.58" y="-100.33" font-family="Times New Roman,serif" font-size="14.00">Σ</text>
</g>
<!-- P&#45;&gt;S2 -->
<g id="edge5" class="edge">
<title>P&#45;&gt;S2</title>
<path fill="none" stroke="black" d="M187.38,-175.78C200.84,-161.31 217.31,-143.6 230.2,-129.74"/>
<polygon fill="black" stroke="black" points="232.43,-132.48 236.68,-122.78 227.3,-127.72 232.43,-132.48"/>
</g>
<!-- I&#45;&gt;S2 -->
<g id="edge6" class="edge">
<title>I&#45;&gt;S2</title>
<path fill="none" stroke="black" d="M343.01,-177.29C322.63,-161.57 296.72,-141.58 277.7,-126.9"/>
<polygon fill="black" stroke="black" points="279.96,-124.22 269.9,-120.88 275.68,-129.76 279.96,-124.22"/>
</g>
<!-- D -->
<g id="node6" class="node">
<title>D</title>
<ellipse fill="none" stroke="black" cx="573.58" cy="-203.43" rx="95.11" ry="27.93"/>
<text text-anchor="middle" x="573.58" y="-205.88" font-family="Times New Roman,serif" font-size="14.00">Derivative Controller:</text>
<text text-anchor="middle" x="573.58" y="-190.13" font-family="Times New Roman,serif" font-size="14.00">Kd = de(t)/dt</text>
</g>
<!-- D&#45;&gt;S2 -->
<g id="edge7" class="edge">
<title>D&#45;&gt;S2</title>
<path fill="none" stroke="black" d="M508.04,-182.95C441.22,-163.1 340.09,-133.05 286.99,-117.27"/>
<polygon fill="black" stroke="black" points="288.15,-113.96 277.56,-114.47 286.15,-120.67 288.15,-113.96"/>
</g>
<!-- S2&#45;&gt;PR -->
<g id="edge8" class="edge">
<title>S2&#45;&gt;PR</title>
<path fill="none" stroke="black" d="M229,-95.57C193.53,-81.15 124.25,-53 80.31,-35.14"/>
<polygon fill="black" stroke="black" points="81.7,-31.93 71.12,-31.41 79.06,-38.42 81.7,-31.93"/>
<text text-anchor="middle" x="175.33" y="-56.45" font-family="Times New Roman,serif" font-size="14.00">u(t)</text>
</g>
</g>
</svg>
