<?xml version="1.0" encoding="UTF-8" standalone="no"?>
<!DOCTYPE svg PUBLIC "-//W3C//DTD SVG 1.1//EN"
 "http://www.w3.org/Graphics/SVG/1.1/DTD/svg11.dtd">
<!-- Generated by graphviz version 9.0.0 (20230911.1827)
 -->
<!-- Title: PID Pages: 1 -->
<svg width="677pt" height="415pt"
 viewBox="0.00 0.00 676.69 414.86" xmlns="http://www.w3.org/2000/svg" xmlns:xlink="http://www.w3.org/1999/xlink">
<g id="graph0" class="graph" transform="scale(1 1) rotate(0) translate(4 410.86)">
<title>PID</title>
<polygon fill="white" stroke="none" points="-4,4 -4,-410.86 672.69,-410.86 672.69,4 -4,4"/>
<!-- SP -->
<g id="node1" class="node">
<title>SP</title>
<ellipse fill="lightgrey" stroke="black" cx="226.58" cy="-388.86" rx="44.58" ry="18"/>
<text text-anchor="middle" x="226.58" y="-383.44" font-family="Times New Roman,serif" font-size="14.00">Set Point</text>
</g>
<!-- S1 -->
<g id="node3" class="node">
<title>S1</title>
<ellipse fill="lightgrey" stroke="black" cx="226.58" cy="-301.11" rx="41.58" ry="18"/>
<text text-anchor="middle" x="226.58" y="-295.69" font-family="Times New Roman,serif" font-size="14.00">SP &#45; PV</text>
</g>
<!-- SP&#45;&gt;S1 -->
<g id="edge1" class="edge">
<title>SP&#45;&gt;S1</title>
<path fill="none" stroke="black" d="M226.58,-370.51C226.58,-359.12 226.58,-343.95 226.58,-330.79"/>
<polygon fill="black" stroke="black" points="230.09,-330.95 226.58,-320.95 223.09,-330.95 230.09,-330.95"/>
<text text-anchor="middle" x="235.21" y="-339.56" font-family="Times New Roman,serif" font-size="14.00">r(t)</text>
</g>
<!-- PR -->
<g id="node2" class="node">
<title>PR</title>
<ellipse fill="lightgrey" stroke="black" cx="40.58" cy="-18" rx="40.58" ry="18"/>
<text text-anchor="middle" x="40.58" y="-12.57" font-family="Times New Roman,serif" font-size="14.00">Process</text>
</g>
<!-- PR&#45;&gt;S1 -->
<g id="edge2" class="edge">
<title>PR&#45;&gt;S1</title>
<path fill="none" stroke="black" d="M34.95,-36.09C23.31,-74.87 1.07,-170.88 43.58,-231.36 73,-273.2 131.19,-289.6 174.09,-296.02"/>
<polygon fill="black" stroke="black" points="173.59,-299.48 183.97,-297.34 174.52,-292.55 173.59,-299.48"/>
<text text-anchor="middle" x="46.21" y="-144.2" font-family="Times New Roman,serif" font-size="14.00">PV = y(t)</text>
</g>
<!-- P -->
<g id="node4" class="node">
<title>P</title>
<ellipse fill="lightgreen" stroke="lightgreen" cx="162.58" cy="-203.43" rx="109.96" ry="27.93"/>
<text text-anchor="middle" x="162.58" y="-205.88" font-family="Times New Roman,serif" font-size="14.00">Proportionate Controller:</text>
<text text-anchor="middle" x="162.58" y="-190.13" font-family="Times New Roman,serif" font-size="14.00">Kₚ e(t)</text>
</g>
<!-- S1&#45;&gt;P -->
<g id="edge3" class="edge">
<title>S1&#45;&gt;P</title>
<path fill="none" stroke="black" d="M215.44,-283.45C207.56,-271.67 196.71,-255.44 186.88,-240.75"/>
<polygon fill="black" stroke="black" points="189.93,-239.01 181.46,-232.64 184.11,-242.9 189.93,-239.01"/>
<text text-anchor="middle" x="211.96" y="-251.81" font-family="Times New Roman,serif" font-size="14.00">e(t)</text>
</g>
<!-- I -->
<g id="node5" class="node">
<title>I</title>
<ellipse fill="lightblue" stroke="lightblue" cx="375.58" cy="-203.43" rx="85.03" ry="27.93"/>
<text text-anchor="middle" x="375.58" y="-205.88" font-family="Times New Roman,serif" font-size="14.00">Integral Controller:</text>
<text text-anchor="middle" x="375.58" y="-190.13" font-family="Times New Roman,serif" font-size="14.00">Kᵢ ∫e(t)</text>
</g>
<!-- S1&#45;&gt;I -->
<g id="edge4" class="edge">
<title>S1&#45;&gt;I</title>
<path fill="none" stroke="black" d="M249.21,-285.58C270.1,-272.17 301.77,-251.83 328.19,-234.87"/>
<polygon fill="black" stroke="black" points="329.85,-237.96 336.38,-229.61 326.07,-232.07 329.85,-237.96"/>
<text text-anchor="middle" x="314.96" y="-251.81" font-family="Times New Roman,serif" font-size="14.00">e(t)</text>
</g>
<!-- D -->
<g id="node6" class="node">
<title>D</title>
<ellipse fill="pink" stroke="pink" cx="573.58" cy="-203.43" rx="95.11" ry="27.93"/>
<text text-anchor="middle" x="573.58" y="-205.88" font-family="Times New Roman,serif" font-size="14.00">Derivative Controller:</text>
<text text-anchor="middle" x="573.58" y="-190.13" font-family="Times New Roman,serif" font-size="14.00">K_d de(t)/dt</text>
</g>
<!-- S1&#45;&gt;D -->
<g id="edge5" class="edge">
<title>S1&#45;&gt;D</title>
<path fill="none" stroke="black" d="M261.13,-290.59C315.1,-275.71 420.84,-246.55 494.28,-226.3"/>
<polygon fill="black" stroke="black" points="495.15,-229.69 503.86,-223.66 493.29,-222.94 495.15,-229.69"/>
<text text-anchor="middle" x="419.96" y="-251.81" font-family="Times New Roman,serif" font-size="14.00">e(t)</text>
</g>
<!-- S2 -->
<g id="node7" class="node">
<title>S2</title>
<ellipse fill="lightgrey" stroke="black" cx="268.58" cy="-105.75" rx="27" ry="18"/>
<text text-anchor="middle" x="268.58" y="-100.33" font-family="Times New Roman,serif" font-size="14.00">Σ</text>
</g>
<!-- P&#45;&gt;S2 -->
<g id="edge6" class="edge">
<title>P&#45;&gt;S2</title>
<path fill="none" stroke="black" d="M191.83,-176.03C208.58,-160.91 229.33,-142.19 245.03,-128.02"/>
<polygon fill="black" stroke="black" points="246.97,-130.98 252.05,-121.68 242.28,-125.78 246.97,-130.98"/>
</g>
<!-- I&#45;&gt;S2 -->
<g id="edge7" class="edge">
<title>I&#45;&gt;S2</title>
<path fill="none" stroke="black" d="M346.91,-176.79C329.88,-161.56 308.55,-142.48 292.44,-128.08"/>
<polygon fill="black" stroke="black" points="295.01,-125.69 285.22,-121.63 290.35,-130.9 295.01,-125.69"/>
</g>
<!-- D&#45;&gt;S2 -->
<g id="edge8" class="edge">
<title>D&#45;&gt;S2</title>
<path fill="none" stroke="black" d="M509.65,-182.37C446.93,-162.7 353.63,-133.43 303.49,-117.7"/>
<polygon fill="black" stroke="black" points="304.62,-114.39 294.03,-114.73 302.52,-121.07 304.62,-114.39"/>
</g>
<!-- S2&#45;&gt;PR -->
<g id="edge9" class="edge">
<title>S2&#45;&gt;PR</title>
<path fill="none" stroke="black" d="M245.47,-96.06C207.03,-81.6 129.46,-52.43 81.57,-34.42"/>
<polygon fill="black" stroke="black" points="82.96,-31.2 72.37,-30.96 80.5,-37.75 82.96,-31.2"/>
<text text-anchor="middle" x="185.33" y="-56.45" font-family="Times New Roman,serif" font-size="14.00">u(t)</text>
</g>
</g>
</svg>
